<?xml version="1.0" standalone="no"?>
<!DOCTYPE svg PUBLIC "-//W3C//DTD SVG 20010904//EN"
 "http://www.w3.org/TR/2001/REC-SVG-20010904/DTD/svg10.dtd">
<svg version="1.0" xmlns="http://www.w3.org/2000/svg"
 width="195.000000pt" height="215.000000pt" viewBox="0 0 195.000000 215.000000"
 preserveAspectRatio="xMidYMid meet">

<g transform="translate(0.000000,215.000000) scale(0.100000,-0.100000)"
fill="#dc143c" stroke="none">
<path d="M622 2100 c-49 -30 -73 -76 -70 -132 2 -37 0 -44 -10 -36 -8 7 -16 7
-21 2 -5 -5 -33 -81 -64 -169 -46 -134 -262 -748 -336 -960 -12 -32 -21 -60
-21 -62 0 -1 33 -3 73 -5 l74 -3 -24 -75 c-80 -251 -176 -549 -184 -574 -5
-16 -9 -29 -9 -30 0 -1 159 -2 353 -2 266 -1 380 -6 467 -18 140 -20 124 -20
245 0 76 12 186 16 462 17 200 1 363 3 363 3 0 1 -11 35 -24 75 -13 41 -56
175 -95 299 -40 124 -78 244 -86 267 l-14 43 75 0 c84 0 84 -1 55 81 -25 71
-136 387 -216 614 -136 387 -175 499 -180 503 -2 3 -11 -1 -19 -7 -12 -10 -13
-6 -9 27 15 109 -109 198 -205 148 -15 -8 -38 -26 -52 -41 -21 -23 -25 -36
-25 -90 0 -54 4 -67 25 -90 37 -40 77 -57 121 -53 22 2 39 1 39 -2 0 -3 -44
-50 -99 -104 l-99 -98 -11 34 c-6 19 -22 45 -36 58 -28 27 -102 38 -142 21
-28 -11 -73 -67 -73 -89 0 -23 -17 -11 -110 83 l-95 95 40 0 c85 0 155 65 155
144 0 111 -125 183 -218 126z m130 -750 c64 -81 76 -102 80 -143 4 -31 14 -57
28 -72 l22 -24 -42 -3 c-72 -5 -83 -64 -14 -79 40 -9 250 -9 298 -1 77 14 75
74 -2 80 l-42 3 20 27 c11 15 22 46 24 69 5 48 5 48 101 166 44 55 72 82 76
74 7 -11 139 -363 200 -531 16 -43 28 -80 27 -81 -2 -2 -34 2 -73 7 -38 5
-114 8 -168 6 -53 -2 -97 0 -97 3 0 4 11 17 25 30 23 21 55 70 55 83 0 2 -7
12 -16 20 -31 31 -58 19 -139 -64 -43 -45 -82 -79 -88 -77 -5 1 20 36 56 77
36 41 65 76 63 77 -2 2 -36 -2 -77 -8 -67 -10 -140 -8 -229 8 l-35 6 55 -62
c69 -78 84 -100 77 -108 -4 -3 -43 33 -88 81 -63 66 -88 86 -108 86 -62 0 -66
-44 -11 -104 22 -24 40 -45 40 -47 0 -2 -77 -5 -170 -5 -94 -1 -170 0 -170 2
0 1 50 134 110 296 61 161 113 299 115 307 3 8 9 10 14 5 4 -5 41 -52 83 -104z
m214 -275 c6 -2 48 1 94 6 87 10 114 3 84 -22 -13 -10 -53 -14 -170 -13 -151
0 -186 7 -170 33 6 10 126 7 162 -4z m-133 -183 l87 -87 0 -68 c0 -37 -4 -67
-9 -67 -9 0 -21 48 -21 84 0 13 -33 53 -86 107 -60 60 -85 92 -81 103 4 9 10
16 14 16 5 0 48 -39 96 -88z m404 72 c4 -10 -24 -45 -86 -108 l-91 -93 0 -81
c0 -44 -4 -84 -10 -87 -6 -4 -10 32 -10 102 l0 108 84 88 c85 88 102 99 113
71z m-157 -5 c0 -3 -18 -27 -40 -52 l-40 -45 0 -123 0 -123 -20 22 c-17 18
-20 35 -20 124 l0 103 -40 45 c-22 25 -40 47 -40 50 0 3 45 5 100 5 55 0 100
-3 100 -6z m-200 -305 c45 -6 61 -14 93 -46 50 -51 86 -51 123 -3 27 36 51 44
72 23 10 -10 8 -16 -8 -28 -13 -10 -23 -34 -29 -70 -19 -117 -47 -140 -166
-140 l-76 0 -25 -55 c-14 -30 -27 -55 -30 -55 -2 0 -24 20 -48 45 -29 30 -44
55 -45 73 -2 91 -3 88 40 73 46 -16 114 -14 129 4 7 9 11 17 9 19 -2 1 -21 13
-42 25 -36 22 -77 80 -92 130 -6 21 -5 23 16 18 13 -3 49 -9 79 -13z m118
-446 c-3 -137 -5 -163 -18 -163 -13 0 -15 26 -18 163 -2 158 -2 162 18 162 20
0 20 -4 18 -162z m-81 130 c-3 -8 -6 -5 -6 6 -1 11 2 17 5 13 3 -3 4 -12 1
-19z m125 -25 c-5 -83 -9 -90 -11 -20 0 37 2 67 7 67 4 0 6 -21 4 -47z"/>
</g>
</svg>
